<svg width="162" height="24" viewBox="0 0 162 24" fill="none" xmlns="http://www.w3.org/2000/svg">
<g clip-path="url(#clip0_288_355)">
<path d="M2.32279 17.2884C2.30875 18.9076 2.4857 20.1922 2.85083 21.1362C3.23 22.0832 3.80859 22.7555 4.58098 23.1589C5.35618 23.5594 6.37574 23.7597 7.64246 23.7597C9.03558 23.7597 10.2686 23.4593 11.3359 22.8556C12.4201 22.2549 13.2795 21.4996 13.9115 20.5984L13.3834 18.5986C13.3132 18.6416 13.1447 18.736 12.8779 18.879C12.6251 19.0221 12.2937 19.1651 11.8864 19.3081C11.4932 19.4369 11.0915 19.5027 10.6843 19.5027C9.54395 19.5027 8.73505 19.2366 8.25757 18.7074C7.79413 18.1781 7.56101 17.2884 7.56101 16.041L7.60314 7.78448H13.3245L13.5351 4.73191H7.66493V0H5.38427C4.63716 1.09 3.79455 2.12278 2.85083 3.09548C1.92115 4.05674 0.971809 4.87209 0 5.54726V7.71868H2.38458L2.31998 17.2884H2.32279ZM21.9275 23.9342C23.2925 23.9342 24.6435 23.6967 25.9804 23.2247C27.3174 22.7527 28.4156 22.0632 29.275 21.1591L28.8537 18.7302C28.0224 19.1737 27.2135 19.4684 26.427 19.6114C25.6518 19.7401 24.7952 19.8059 23.8514 19.8059C22.2617 19.8059 21.0568 19.311 20.2423 18.3211C19.4249 17.3313 18.9756 16.0696 18.8913 14.5362L28.4128 14.3216C28.497 13.9354 28.5813 13.3317 28.6656 12.5164C28.7639 11.6982 28.8144 11.1174 28.8144 10.7741C28.8144 9.28359 28.5616 7.97902 28.0533 6.86041C27.5617 5.7418 26.8568 4.88068 25.9411 4.27989C25.0255 3.6791 23.9638 3.37585 22.7533 3.37585C21.2337 3.37585 19.762 3.82787 18.3408 4.73191C16.9336 5.62165 15.7793 6.87472 14.8777 8.49398C13.9901 10.1132 13.5463 11.9642 13.5463 14.0412C13.5463 16.1182 13.9199 17.9492 14.6642 19.4397C15.4113 20.9303 16.4168 22.0546 17.6836 22.8156C18.9503 23.5623 20.3659 23.9342 21.9275 23.9342ZM21.568 6.96627C22.3713 6.96627 22.9611 7.27524 23.3403 7.89033C23.7194 8.49112 23.9104 9.30933 23.9104 10.3421C23.9104 10.5424 23.8964 10.7999 23.8683 11.1174C23.8543 11.4321 23.8262 11.6553 23.784 11.784L18.8239 12.2789C18.852 11.1889 18.9924 10.242 19.2452 9.44093C19.498 8.63702 19.8294 8.02765 20.2367 7.61283C20.6439 7.18369 21.0877 6.96627 21.568 6.96627ZM33.2971 23.7826C34.1987 23.7826 35.0357 23.6109 35.8081 23.2676C36.5973 22.9386 37.2574 22.5209 37.7938 22.0203C38.3415 21.5196 38.7235 21.0161 38.9341 20.5154L39.1869 20.5812L39.2515 20.8816C39.4481 21.7714 39.7852 22.4666 40.2655 22.9672C40.757 23.4679 41.5462 23.7196 42.6304 23.7196C43.4196 23.7196 44.0516 23.6538 44.5319 23.5251C45.0234 23.3964 45.5093 23.1818 45.9896 22.8814L46.3912 20.1292L45.5683 19.9776C44.8914 19.8489 44.4139 19.6772 44.133 19.4626C43.8662 19.2338 43.7033 18.9391 43.6471 18.5815C43.591 18.2239 43.5629 17.6202 43.5629 16.7763V10.0017C43.5629 7.70723 43.091 6.03648 42.1473 4.99225C41.2036 3.93086 39.847 3.4016 38.0719 3.4016C36.8754 3.4016 35.603 3.65908 34.2492 4.1769C32.8983 4.67755 31.7664 5.32411 30.8507 6.11372C29.9491 6.90333 29.4997 7.68435 29.4997 8.45679C29.4997 9.47526 29.8593 10.1476 30.5755 10.4794C31.2945 10.8084 32.2298 10.9744 33.3842 10.9744C33.4825 9.71272 33.5892 8.77435 33.7015 8.15639C33.8139 7.5413 33.9965 7.08928 34.2492 6.80033C34.5161 6.49994 34.9037 6.34831 35.4092 6.34831C36.4372 6.34831 37.2237 6.78603 37.7742 7.66146C38.3219 8.53689 38.5971 9.62689 38.5971 10.9315V12.545C36.485 12.6165 34.7043 12.9741 33.255 13.6207C31.8057 14.2673 30.7159 15.0969 29.9828 16.1154C29.2638 17.1339 28.9071 18.2439 28.9071 19.4483C28.9071 20.8387 29.3087 21.9144 30.1092 22.6754C30.9266 23.4221 31.9882 23.794 33.2971 23.794V23.7826ZM38.5971 18.7302C38.232 19.0735 37.8022 19.3768 37.3079 19.6343C36.8304 19.8775 36.3586 20.0005 35.8923 20.0005C35.2716 20.0005 34.7801 19.7916 34.415 19.3768C34.0639 18.962 33.8869 18.4871 33.8869 17.9578C33.8869 17.1253 34.2464 16.3958 34.9627 15.7635C35.6957 15.1341 36.9063 14.6735 38.5943 14.3874V18.7302H38.5971ZM57.6541 20.6442L54.8258 19.5685V10.1075C55.3032 9.62117 55.8397 9.25498 56.4295 9.0118C57.0222 8.75432 57.6401 8.62558 58.2889 8.62558C59.1483 8.62558 59.8224 8.94886 60.3168 9.59256C60.8223 10.222 61.0779 11.1489 61.0779 12.3676V19.5713L59.7045 20.7758L59.5977 23.2705H68.6754L69.0349 20.647L66.0999 19.5713V10.1962C66.6195 9.69555 67.1475 9.30647 67.684 9.03469C68.2176 8.7629 68.8159 8.62558 69.4787 8.62558C70.3803 8.62558 71.0684 8.94886 71.5487 9.59256C72.0262 10.2391 72.2678 11.1632 72.2678 12.3676V19.5713L70.9364 20.7758L70.8718 23.2705H79.9495L80.3287 20.647L77.3094 19.5713V9.83002C77.3094 7.79306 76.874 6.27393 76.0005 5.26976C75.1411 4.25128 73.8828 3.74204 72.2228 3.74204C70.0826 3.74204 68.0014 4.91787 65.9735 7.26952L65.6786 7.22661C65.3556 5.97926 64.777 5.07522 63.9484 4.51734C63.1311 3.94517 62.148 3.65622 60.9937 3.65622C58.7972 3.65622 56.73 4.77482 54.7864 7.01204L54.5336 6.96913L54.955 4.51734L54.3651 3.87078L46.8912 4.6232L46.512 7.22661L49.6999 8.64561V19.5713L46.6187 20.7758L46.3435 23.2705H57.2384L57.6597 20.647L57.6541 20.6442ZM82.4746 17.2884C82.4605 18.9076 82.6375 20.1922 83.0026 21.1362C83.3818 22.0832 83.9604 22.7555 84.7327 23.1589C85.5079 23.5594 86.5275 23.7597 87.7942 23.7597C89.1873 23.7597 90.4204 23.4593 91.4877 22.8556C92.5718 22.2549 93.4313 21.4996 94.0632 20.5984L93.5352 18.5986C93.465 18.6416 93.2965 18.736 93.0296 18.879C92.7769 19.0221 92.4454 19.1651 92.0382 19.3081C91.645 19.4369 91.2433 19.5027 90.8361 19.5027C89.6957 19.5027 88.8868 19.2366 88.4093 18.7074C87.9459 18.1781 87.7128 17.2884 87.7128 16.041L87.7549 7.78448H93.4762L93.6869 4.73191H87.8167V0H85.536C84.7889 1.09 83.9463 2.12278 83.0026 3.09548C82.0729 4.05674 81.1236 4.87209 80.1518 5.54726V7.71868H82.5363L82.4717 17.2884H82.4746ZM103.22 23.8484C105.051 23.8484 106.688 23.4107 108.138 22.5381C109.587 21.6483 110.722 20.401 111.536 18.796C112.353 17.1911 112.761 15.3401 112.761 13.2488C112.761 11.1575 112.41 9.36941 111.705 7.89319C111 6.40267 109.966 5.26976 108.601 4.49446C107.25 3.71916 105.618 3.33294 103.703 3.33294C102.085 3.33294 100.52 3.74776 99.015 4.58028C97.5095 5.4128 96.2765 6.61724 95.3215 8.19359C94.3638 9.75563 93.8863 11.5837 93.8863 13.6779C93.8863 15.5833 94.2093 17.3055 94.8581 18.839C95.5069 20.3581 96.5265 21.5768 97.9196 22.4952C99.3267 23.3992 101.093 23.8512 103.22 23.8512V23.8484ZM102.86 6.70879C104.492 6.70879 105.641 7.56991 106.301 9.28931C106.978 11.0087 107.315 13.1029 107.315 15.569C107.315 17.1739 107.034 18.4356 106.469 19.3539C105.908 20.258 105.054 20.71 103.916 20.71C102.312 20.71 101.136 19.949 100.391 18.4298C99.6582 16.8964 99.293 14.8394 99.293 12.2589C99.293 10.5538 99.5739 9.20634 100.138 8.21647C100.714 7.2123 101.624 6.71165 102.863 6.71165L102.86 6.70879ZM114.864 7.69865L119.277 24L123.142 23.485L125.802 12.5164L128.737 24L132.643 23.485L136.739 7.6586L139.019 6.41125L139.398 3.91656H131.121L130.784 6.45417L133.023 7.70151L131.335 15.6376L130.955 15.918L128.296 4.90642L124.411 5.29264L121.962 15.7864L121.625 15.7435L119.746 7.6586L121.962 6.41125L122.299 3.91656H112.797L112.438 6.45417L114.864 7.70151V7.69865ZM150.473 20.6442L147.603 19.5685V10.0646C148.56 9.08904 149.701 8.60269 151.024 8.60269C151.911 8.60269 152.608 8.91739 153.113 9.54965C153.619 10.1647 153.874 11.1346 153.874 12.4535V19.5713L152.417 20.7958L152.31 23.2676H161.663L162 20.6442L158.919 19.5685V9.76135C158.919 7.7244 158.469 6.19096 157.568 5.15818C156.666 4.1254 155.4 3.61044 153.768 3.61044C152.599 3.61044 151.51 3.91084 150.496 4.51448C149.482 5.11527 148.504 5.94779 147.56 7.00918L147.285 6.94338L147.707 4.47157L147.136 3.8479L139.727 4.58028L139.325 7.20372L142.451 8.64561V19.5713L139.37 20.7958L139.075 23.2676H150.012L150.476 20.6442H150.473Z" fill="#3B4435"/>
</g>
<defs>
<clipPath id="clip0_288_355">
<rect width="162" height="24" fill="white"/>
</clipPath>
</defs>
</svg>
